Naruto Shippuden Season 6 English Dubbed
Eps 113-143
Language - English
Subtitles - No/Yes 

General

Format                         : AVI
Format/Info                    : Audio Video Interleave
File size                      : 73.0 MiB
Overall bit rate               : 516 Kbps
Writing application            : MEncoder SVN-r30881(20100311-gcc4.3.3)
Writing library                : MPlayer

Video
ID                             : 0
Format                         : MPEG-4 Visual
Format profile                 : Advanced Simple@L5
Format settings, BVOP          : 2
Format settings, QPel          : No
Format settings, GMC           : No warppoints
Format settings, Matrix        : Default (H.263)
Codec ID                       : XVID
Codec ID/Hint                  : XviD
Bit rate                       : 376 Kbps
Width                          : ~640 pixels
Height                         : ~362 pixels
Display aspect ratio           : 16:9
Original display aspect ratio  : 16:9
Frame rate                     : 23.976 fps
Color space                    : YUV
Chroma subsampling             : 4:2:0
Bit depth                      : 8 bits
Scan type                      : Progressive
Compression mode               : Lossy
Bits/(Pixel*Frame)             : 0.068
Stream size                    : 53.2 MiB (73%)
Writing library                : XviD 1.2.1 (UTC 2008-12-04)

Audio
ID                             : 1
Format                         : MPEG Audio
Format version                 : Version 1
Format profile                 : Layer 3
Mode                           : Joint stereo
Mode extension                 : MS Stereo
Codec ID                       : 55
Codec ID/Hint                  : MP3
Bit rate mode                  : Constant
Bit rate                       : 128 Kbps
Channel(s)                     : 2 channels
Sampling rate                  : ~44.1 KHz
Compression mode               : Lossy
Delay relative to video        : 42ms
Stream size                    : 18.1 MiB (25%)
Alignment                      : Aligned on interleaves
Interleave, duration           : 26 ms (0.63 video frame)
Interleave, preload duration   : 522 ms